<svg id="FLAGS" xmlns="http://www.w3.org/2000/svg" viewBox="0 0 24 16"><defs><style>.cls-1{fill:#0437a0;}.cls-2{fill:#f4f4f4;}.cls-3{fill:#ff1612;}</style></defs><title>Artboard 4</title><g id="AUD"><polygon class="cls-1" points="0 0.01 11.99 0.01 24 0.01 24 16.01 11.99 16.01 0 16.01 0 0.01"/><polygon class="cls-2" points="5.01 0.01 6 0.01 6.98 0.01 6.98 2.35 10.51 0.01 11.99 0.01 11.99 0.99 9.47 2.67 11.99 2.67 11.99 5.33 9.47 5.33 11.99 7 11.99 8.01 10.51 8.01 6.98 5.65 6.98 8.01 6 8.01 5.01 8.01 5.01 5.65 1.48 8.01 0 8.01 0 7 2.54 5.33 0 5.33 0 2.67 2.54 2.67 0 0.99 0 0.01 1.48 0.01 5.01 2.35 5.01 0.01"/><path class="cls-3" d="M6.62,0V3.18H12V4.83H6.62V8H5.37V4.83H0V3.18H5.37V0H6.62ZM12,7.63,8.54,5.31H7.42l4,2.68H12V7.63Zm-3.45-5L12,.36V0h-.55l-4,2.68Zm-4,0L.55,0H0V.36L3.46,2.67ZM3.46,5.33,0,7.64V8H.55l4-2.68Z"/><polygon class="cls-2" points="18 10.46 18.16 10.97 18.67 10.77 18.37 11.22 18.84 11.51 18.3 11.55 18.37 12.09 18 11.69 17.62 12.09 17.71 11.55 17.16 11.51 17.62 11.22 17.33 10.77 17.84 10.97 18 10.46"/><polygon class="cls-2" points="15 5.71 15.17 6.21 15.68 6.03 15.37 6.48 15.83 6.75 15.29 6.81 15.37 7.33 15 6.95 14.63 7.33 14.7 6.81 14.17 6.75 14.63 6.48 14.34 6.03 14.83 6.21 15 5.71"/><polygon class="cls-2" points="18 2.46 18.16 2.97 18.67 2.77 18.37 3.22 18.84 3.51 18.3 3.55 18.37 4.08 18 3.69 17.62 4.08 17.71 3.55 17.16 3.51 17.62 3.22 17.33 2.77 17.84 2.97 18 2.46"/><polygon class="cls-2" points="20.67 4.9 20.83 5.42 21.34 5.23 21.04 5.68 21.5 5.96 20.97 6 21.04 6.54 20.67 6.14 20.29 6.54 20.36 6 19.82 5.96 20.29 5.68 19.99 5.23 20.5 5.42 20.67 4.9"/><polygon class="cls-2" points="19.2 7.32 19.33 7.64 19.67 7.65 19.41 7.88 19.49 8.22 19.2 8.04 18.91 8.22 18.99 7.88 18.72 7.65 19.06 7.64 19.2 7.32"/><polygon class="cls-2" points="6 10.1 6.35 11.18 7.41 10.79 6.77 11.72 7.76 12.3 6.63 12.4 6.79 13.53 6 12.71 5.22 13.53 5.38 12.4 4.25 12.3 5.22 11.72 4.58 10.79 5.66 11.18 6 10.1"/></g></svg>