<svg id="FLAGS" xmlns="http://www.w3.org/2000/svg" viewBox="0 0 24 16"><defs><style>.cls-1{fill:#f0f0f0;}.cls-2{fill:#ff1612;}</style></defs><title>Artboard 5</title><g id="CAD"><polygon class="cls-1" points="5.98 0 18 0 18 16 5.98 16 5.98 0"/><polygon class="cls-2" points="0 0 5.98 0 5.98 16 0 16 0 0"/><polygon class="cls-2" points="18 0 24 0 24 16 18 16 18 0"/><path class="cls-2" d="M12,2.91s.7,1.34.8,1.51.2.19.45.08.61-.31.61-.31-.39,2.07-.46,2.41.15.45.38.2l1-1.16.15.55c0,.13.1.23.34.17s1.23-.27,1.23-.27-.35,1.25-.38,1.4-.07.23.12.33l.46.21s-2,1.68-2.22,1.8-.21.22-.13.48.16.54.16.54l-2.23-.31c-.23,0-.2.21-.2.32s.06,2.25.06,2.25h-.37s.06-2.12.06-2.25,0-.35-.2-.32l-2.23.31s.07-.27.16-.54,0-.35-.13-.48S7.22,8,7.22,8s.26-.11.45-.21.17-.17.13-.33-.38-1.4-.38-1.4l1.23.27c.24,0,.31,0,.34-.17s.15-.55.15-.55l1,1.16c.23.25.44.14.38-.2s-.46-2.41-.46-2.41.35.2.6.31.36.09.46-.08S12,2.91,12,2.91Z"/></g></svg>