<svg xmlns="http://www.w3.org/2000/svg" viewBox="0 0 26.4 26.4"><g><g><path d="M6.19,10.47h-2A9.08,9.08,0,0,1,21.72,8a1,1,0,1,0,1.93-.72,11.14,11.14,0,0,0-18.32-4A11.07,11.07,0,0,0,2.06,11,4.14,4.14,0,0,0,0,14.59V18.1a4.14,4.14,0,0,0,4.13,4.13H6.19a1,1,0,0,0,1-1V11.5A1,1,0,0,0,6.19,10.47Zm-1,9.69h-1A2.07,2.07,0,0,1,2.06,18.1V14.59a2.07,2.07,0,0,1,2.07-2.06h1Z"></path><path d="M22.28,10.47H20.21a1,1,0,0,0-1,1V22.28a1,1,0,0,1-1,1H15v0a2.08,2.08,0,0,0-1.81-1.06,2.06,2.06,0,0,0,0,4.12A2.08,2.08,0,0,0,15,25.34v0h3.14a3.1,3.1,0,0,0,3.1-3.09v-.05h1A4.14,4.14,0,0,0,26.4,18.1V14.59A4.13,4.13,0,0,0,22.28,10.47Zm2.06,7.63a2.06,2.06,0,0,1-2.06,2.06h-1V12.53h1a2.07,2.07,0,0,1,2.06,2.06Z"></path></g></g></svg>