<svg id="FLAGS" xmlns="http://www.w3.org/2000/svg" viewBox="0 0 24 16"><defs><style>.cls-1{fill:#0437a0;}.cls-2{fill:#ffde27;}</style></defs><title>Artboard 3</title><g id="EUR"><polygon class="cls-1" points="24 0.01 24 15.99 0.01 15.99 0.01 0.01 24 0.01"/><path class="cls-2" d="M12,1.36l.21.64h.68l-.55.39.2.65L12,2.64l-.55.4.19-.65L11.08,2h.68L12,1.36ZM9.12,12.18l.21.64H10l-.55.39.2.65-.55-.39-.55.39.19-.65-.55-.39h.68l.24-.64ZM7,10.05l.21.64h.68l-.55.39.2.65L7,11.34l-.55.39.19-.65-.55-.39h.68L7,10.05ZM6.21,7.16l.22.64H7.1l-.55.39.2.65-.55-.4-.55.4.2-.65L5.3,7.8H6l.24-.64ZM7,4.25l.21.64h.68l-.55.39.2.65L7,5.54l-.55.39.19-.65-.55-.39h.68L7,4.25ZM9.11,2.14l.21.63H10l-.55.4.19.65-.55-.4-.55.4.2-.65-.55-.4h.68l.24-.63Zm5.8,0,.21.63h.68l-.55.4.19.65-.55-.4-.55.4.2-.65L14,2.77h.68l.24-.63ZM17,4.25l.21.64h.68l-.55.39.2.65L17,5.54l-.55.39.19-.65-.55-.39h.68L17,4.25Zm.78,2.9.21.63h.67l-.55.4.2.65-.55-.4-.55.4.2-.65-.55-.4h.68l.24-.63ZM17,10l.22.63h.67l-.55.4.2.65-.55-.4-.55.4.2-.65-.55-.4h.67L17,10Zm-2.13,2.13.21.63h.68l-.55.4.2.65-.55-.4-.55.4.2-.65L14,12.8h.67l.24-.63ZM12,13l.21.63h.68l-.55.4.2.65-.55-.4-.55.4.19-.65-.55-.4h.68L12,13Z"/></g></svg>