<svg fill="none" xmlns="http://www.w3.org/2000/svg" viewBox="0 0 48 48"><path d="M27.87 47.688zm.48-.082l-.287.05.287-.05zm-1.618.238zm.461-.056zm1.81-.312zm1.622-.403c-.068.02-.137.038-.205.057.068-.02.137-.038.205-.057zm-.491.134zm-.641.161l-.237.053.237-.053zm-3.475.547zM48 24C48 10.747 37.253 0 24 0S0 10.747 0 24s10.747 24 24 24c.141 0 .281-.003.422-.005V29.312h-5.156v-6.01h5.156V18.88c0-5.128 3.13-7.92 7.705-7.92 2.191 0 4.074.164 4.623.237v5.36h-3.154c-2.49 0-2.971 1.183-2.971 2.918v3.827h5.95l-.775 6.01h-5.175v17.76C40.656 44.198 48 34.956 48 24zM25.586 47.947zm-.766.038z" fill="#40569A"/></svg>