<svg id="FLAGS" xmlns="http://www.w3.org/2000/svg" viewBox="0 0 24 16"><defs><style>.cls-1{fill:#0437a0;}.cls-2{fill:#f4f4f4;}.cls-3{fill:#ff1612;}</style></defs><title>Artboard 8</title><g id="GBP"><path class="cls-1" d="M3,0h7v4.7L3,0ZM14,0h7.06L14,4.71V0ZM24,2V5.35H18.94L24,2Zm0,8.67V14l-5.07-3.37ZM21,16H14v-4.7L21,16ZM10,16H3l7-4.7V16ZM0,14V10.65H5.07L0,14ZM0,5.35V2L5.07,5.35Z"/><polygon class="cls-2" points="24.01 14.02 18.94 10.65 24.01 10.65 24.01 5.35 18.94 5.35 24.01 1.98 24.01 0.01 21.03 0.01 13.99 4.71 13.99 0.01 12 0.01 10.02 0.01 10.02 4.71 2.97 0.01 0.01 0.01 0.01 1.98 5.07 5.35 0.01 5.35 0.01 10.65 5.07 10.65 0.01 14.02 0.01 16.01 2.97 16.01 10.02 11.31 10.02 16.01 12 16.01 13.99 16.01 13.99 11.31 21.03 16.01 24.01 16.01 24.01 14.02"/><path class="cls-3" d="M13.24,0V6.36H24v3.3H13.24V16H10.76V9.66H0V6.36H10.76V0h2.48ZM24,15.26l-6.93-4.61H14.85l8,5.36H24v-.75ZM17.08,5.35,24,.74V0H22.89l-8,5.36Zm-7.93,0L1.12,0H0V.74L6.93,5.35Zm-2.23,5.3L0,15.26V16H1.11l8-5.36Z"/></g></svg>