<svg id="FLAGS" xmlns="http://www.w3.org/2000/svg" viewBox="0 0 24 16"><defs><style>.cls-1{fill:#f90805;}.cls-2{fill:#fff;}</style></defs><title>Artboard 7</title><g id="HKD"><polygon class="cls-1" points="0 0 24 0 24 16 0 16 0 0"/><path class="cls-2" d="M12.84,3.34c-.18.12-.54.29-.49.69s.4.88.31,1.36a2,2,0,0,1-.88,1,1,1,0,0,0-.2,1.5,1.79,1.79,0,0,1-.39-.43A1.55,1.55,0,0,1,11,6.7a1.71,1.71,0,0,1,0-.61,1.69,1.69,0,0,1,.23-.55l-.06,0a1.69,1.69,0,0,0-.24.58,2,2,0,0,0,.21,1.43,1.57,1.57,0,0,0,.34.38h0a2.35,2.35,0,0,1,.14-4.29,2.93,2.93,0,0,1,1.23-.26ZM11.3,4.81l.21.23.29-.14-.16.26.21.23-.31-.06-.15.29-.05-.32-.31,0,.29-.14,0-.3Z"/><path class="cls-2" d="M16.51,7.63c-.17-.14-.42-.42-.81-.25s-.7.66-1.18.7a1.86,1.86,0,0,1-1.21-.52,1,1,0,0,0-1.49.27,1.86,1.86,0,0,1,.29-.51,1.6,1.6,0,0,1,.64-.46,1.85,1.85,0,0,1,.6-.16,1.79,1.79,0,0,1,.59,0l0-.07a1.93,1.93,0,0,0-.62,0,1.7,1.7,0,0,0-.62.15,1.85,1.85,0,0,0-.68.48,2,2,0,0,0-.27.44h0A2.34,2.34,0,0,1,15.9,6.5a4,4,0,0,1,.61,1.13Zm-1.88-1-.15.27.21.22-.31-.06-.16.29,0-.31L13.87,7l.28-.13,0-.31.21.23.31-.14Z"/><path class="cls-2" d="M13.53,12.45a.72.72,0,0,0,0-.85c-.29-.31-.85-.45-1-.9a2,2,0,0,1,.12-1.33A1,1,0,0,0,11.87,8a1.23,1.23,0,0,1,.56.12,1.93,1.93,0,0,1,1,1,1.52,1.52,0,0,1,.14.58h.07a1.43,1.43,0,0,0-.16-.61,1.89,1.89,0,0,0-.35-.54,2,2,0,0,0-.68-.49,1.45,1.45,0,0,0-.5-.11h0a2.33,2.33,0,0,1,2.42,3.53,2.86,2.86,0,0,1-.83,1Zm.37-2.09-.31-.06-.14.28,0-.31-.31,0,.29-.15-.05-.31.22.23.28-.14-.16.28.23.23Z"/><path class="cls-2" d="M8.1,11.09c.21,0,.59.09.8-.27s.17-.94.55-1.27a2,2,0,0,1,1.3-.29A1,1,0,0,0,11.8,8.17a1.85,1.85,0,0,1,.07.58,1.91,1.91,0,0,1-.26.76,1.69,1.69,0,0,1-.39.47,1.81,1.81,0,0,1-.51.31l0,.07a2.1,2.1,0,0,0,.53-.33,1.87,1.87,0,0,0,.41-.49A2,2,0,0,0,12,8.75a1.68,1.68,0,0,0,0-.51h0a2.35,2.35,0,0,1-2.64,3.39,3.52,3.52,0,0,1-1.17-.54Zm2.11-.28,0-.31-.31-.06.28-.13,0-.31.21.23.29-.14-.16.27.21.22-.31-.05-.13.28Z"/><path class="cls-2" d="M7.63,5.54c.06.22.12.6.52.68s1-.14,1.39.11a2.15,2.15,0,0,1,.7,1.13,1,1,0,0,0,1.37.64,1.48,1.48,0,0,1-.52.25,1.65,1.65,0,0,1-.8,0,1.71,1.71,0,0,1-.58-.21,1.88,1.88,0,0,1-.47-.38l-.06,0a1.73,1.73,0,0,0,.48.4,1.83,1.83,0,0,0,.6.22,1.93,1.93,0,0,0,.83,0,1.42,1.42,0,0,0,.47-.21h0a2.35,2.35,0,0,1-4.07-1.4,3.39,3.39,0,0,1,.14-1.27Zm1,1.91.28-.14,0-.31L9,7.22l.28-.14-.14.28.23.23-.31-.06-.15.29,0-.31-.32-.06Z"/></g></svg>