<svg xmlns="http://www.w3.org/2000/svg" viewBox="0 0 22 16"><defs><style>.cls-1{fill:#0437a0;}.cls-2{fill:#e80032;}.cls-3{fill:#f0f0f0;}.cls-4{fill:#d80027;}.cls-5{fill:#0052b4;}</style></defs><title>new_zealand_flag</title><g id="Layer_2" data-name="Layer 2"><g id="Layer_1-2" data-name="Layer 1"><rect class="cls-1" width="22" height="16"/><polygon class="cls-2" points="19.34 8.56 19.52 9.06 20.12 9.06 19.64 9.37 19.82 9.88 19.34 9.57 18.85 9.88 19.03 9.37 18.55 9.06 19.15 9.06 19.34 8.56"/><polygon class="cls-2" points="17.18 12.19 17.46 12.95 18.37 12.95 17.64 13.41 17.91 14.17 17.18 13.7 16.45 14.17 16.73 13.41 16 12.95 16.91 12.95 17.18 12.19"/><polygon class="cls-2" points="17.27 6.25 17.5 6.88 18.25 6.88 17.64 7.27 17.87 7.9 17.27 7.51 16.66 7.9 16.89 7.27 16.28 6.88 17.03 6.88 17.27 6.25"/><polygon class="cls-2" points="15.2 8.54 15.47 9.29 16.38 9.29 15.65 9.76 15.93 10.52 15.2 10.05 14.46 10.52 14.74 9.76 14.01 9.29 14.92 9.29 15.2 8.54"/><polygon class="cls-3" points="12.07 0 12.07 1.57 9.94 2.86 12.07 2.86 12.07 5.92 9.29 5.92 12.07 7.61 12.07 8.78 10.81 8.78 7.35 6.68 7.35 8.78 4.72 8.78 4.72 6.28 0.6 8.78 0 8.78 0 7.21 2.13 5.92 0 5.92 0 2.86 2.79 2.86 0 1.17 0 0 1.26 0 4.72 2.1 4.72 0 7.35 0 7.35 2.5 11.47 0 12.07 0"/><polygon class="cls-4" points="6.79 0 5.28 0 5.28 3.57 0 3.57 0 5.21 5.28 5.21 5.28 8.78 6.79 8.78 6.79 5.21 12.07 5.21 12.07 3.57 6.79 3.57 6.79 0"/><polygon class="cls-5" points="7.35 5.92 12.07 8.78 12.07 7.97 8.69 5.92 7.35 5.92"/><polygon class="cls-3" points="7.35 5.92 12.07 8.78 12.07 7.97 8.69 5.92 7.35 5.92"/><polygon class="cls-4" points="7.35 5.92 12.07 8.78 12.07 7.97 8.69 5.92 7.35 5.92"/><polygon class="cls-4" points="3.39 5.92 0 7.97 0 8.78 0 8.78 4.72 5.92 3.39 5.92"/><polygon class="cls-5" points="4.72 2.86 0 0 0 0.81 3.39 2.86 4.72 2.86"/><polygon class="cls-3" points="4.72 2.86 0 0 0 0.81 3.39 2.86 4.72 2.86"/><polygon class="cls-4" points="4.72 2.86 0 0 0 0.81 3.39 2.86 4.72 2.86"/><polygon class="cls-4" points="8.69 2.86 12.07 0.81 12.07 0 12.07 0 7.35 2.86 8.69 2.86"/></g></g></svg>