<svg id="FLAGS" xmlns="http://www.w3.org/2000/svg" viewBox="0 0 24 16"><defs><style>.cls-1{fill:#f90805;}.cls-2{fill:#f0f0f0;}</style></defs><title>Artboard 9</title><g id="SGD"><polygon class="cls-1" points="0.01 7.99 24.02 7.99 24.02 -0.02 0.01 -0.02 0.01 7.99"/><path class="cls-2" d="M0,16H24V8H0v8ZM5.25,1a2.87,2.87,0,0,1,1,.17A2.91,2.91,0,0,0,3.53,4,2.9,2.9,0,0,0,6.22,6.81a3.14,3.14,0,0,1-1,.17,3,3,0,1,1,0-6Zm1.58.55L7,2h.53l-.43.31.17.49-.42-.31-.42.31.16-.49L6.15,2h.52l.16-.5ZM8.44,2.75l.15.49h.52l-.42.31.17.5-.42-.31L8,4.05l.17-.5-.42-.31h.52l.16-.49Zm-3.21,0,.16.49h.52l-.42.31.17.5-.43-.31-.42.31L5,3.55l-.42-.31h.52l.15-.49Zm.6,1.88L6,5.12H6.5l-.42.31.17.5-.42-.32-.43.32.17-.5-.42-.31h.52l.16-.49Zm2,0L8,5.12h.52l-.43.31.17.5-.42-.32-.42.32.17-.5-.43-.31h.53l.15-.49Z"/></g></svg>